<mxfile host="app.diagrams.net" agent="Mozilla/5.0 (Windows NT 10.0; Win64; x64) AppleWebKit/537.36 (KHTML, like Gecko) Chrome/136.0.0.0 Safari/537.36" version="27.0.2">
  <diagram name="Page-1" id="cy1DtGw65cHyPGaeN79h">
    <mxGraphModel dx="1895" dy="2122" grid="1" gridSize="10" guides="1" tooltips="1" connect="1" arrows="1" fold="1" page="1" pageScale="1" pageWidth="850" pageHeight="1100" math="0" shadow="0">
      <root>
        <mxCell id="0" />
        <mxCell id="1" parent="0" />
        <mxCell id="My69YMBWia484eMZ25qk-38" style="rounded=0;orthogonalLoop=1;jettySize=auto;html=1;endArrow=none;startFill=0;" parent="1" source="My69YMBWia484eMZ25qk-39" edge="1">
          <mxGeometry relative="1" as="geometry">
            <mxPoint x="660" y="270" as="targetPoint" />
          </mxGeometry>
        </mxCell>
        <mxCell id="My69YMBWia484eMZ25qk-1" value="用户" style="whiteSpace=wrap;html=1;align=center;" parent="1" vertex="1">
          <mxGeometry x="310" y="250" width="100" height="40" as="geometry" />
        </mxCell>
        <mxCell id="My69YMBWia484eMZ25qk-2" value="真实姓名" style="ellipse;whiteSpace=wrap;html=1;align=center;" parent="1" vertex="1">
          <mxGeometry x="200" y="320" width="100" height="40" as="geometry" />
        </mxCell>
        <mxCell id="My69YMBWia484eMZ25qk-5" style="rounded=0;orthogonalLoop=1;jettySize=auto;html=1;entryX=0.17;entryY=0.95;entryDx=0;entryDy=0;entryPerimeter=0;endArrow=none;startFill=0;" parent="1" source="My69YMBWia484eMZ25qk-2" target="My69YMBWia484eMZ25qk-1" edge="1">
          <mxGeometry relative="1" as="geometry" />
        </mxCell>
        <mxCell id="My69YMBWia484eMZ25qk-9" style="rounded=0;orthogonalLoop=1;jettySize=auto;html=1;entryX=0;entryY=0.5;entryDx=0;entryDy=0;endArrow=none;endFill=1;startFill=0;" parent="1" source="My69YMBWia484eMZ25qk-6" target="My69YMBWia484eMZ25qk-1" edge="1">
          <mxGeometry relative="1" as="geometry" />
        </mxCell>
        <mxCell id="My69YMBWia484eMZ25qk-6" value="密码" style="ellipse;whiteSpace=wrap;html=1;align=center;" parent="1" vertex="1">
          <mxGeometry x="190" y="270" width="100" height="40" as="geometry" />
        </mxCell>
        <mxCell id="My69YMBWia484eMZ25qk-10" style="rounded=0;orthogonalLoop=1;jettySize=auto;html=1;entryX=0;entryY=0.25;entryDx=0;entryDy=0;endArrow=none;endFill=1;startFill=0;" parent="1" source="My69YMBWia484eMZ25qk-7" target="My69YMBWia484eMZ25qk-1" edge="1">
          <mxGeometry relative="1" as="geometry" />
        </mxCell>
        <mxCell id="My69YMBWia484eMZ25qk-7" value="用户名" style="ellipse;whiteSpace=wrap;html=1;align=center;" parent="1" vertex="1">
          <mxGeometry x="200" y="230" width="100" height="40" as="geometry" />
        </mxCell>
        <mxCell id="My69YMBWia484eMZ25qk-8" value="用户id" style="ellipse;whiteSpace=wrap;html=1;align=center;" parent="1" vertex="1">
          <mxGeometry x="230" y="190" width="100" height="40" as="geometry" />
        </mxCell>
        <mxCell id="My69YMBWia484eMZ25qk-11" style="rounded=0;orthogonalLoop=1;jettySize=auto;html=1;entryX=0.07;entryY=0.025;entryDx=0;entryDy=0;entryPerimeter=0;endArrow=none;endFill=1;startFill=0;" parent="1" source="My69YMBWia484eMZ25qk-8" target="My69YMBWia484eMZ25qk-1" edge="1">
          <mxGeometry relative="1" as="geometry" />
        </mxCell>
        <mxCell id="My69YMBWia484eMZ25qk-12" value="邮箱" style="ellipse;whiteSpace=wrap;html=1;align=center;" parent="1" vertex="1">
          <mxGeometry x="270" y="330" width="100" height="40" as="geometry" />
        </mxCell>
        <mxCell id="My69YMBWia484eMZ25qk-19" style="rounded=0;orthogonalLoop=1;jettySize=auto;html=1;endArrow=none;startFill=0;" parent="1" source="My69YMBWia484eMZ25qk-13" target="My69YMBWia484eMZ25qk-1" edge="1">
          <mxGeometry relative="1" as="geometry" />
        </mxCell>
        <mxCell id="My69YMBWia484eMZ25qk-13" value="手机号" style="ellipse;whiteSpace=wrap;html=1;align=center;" parent="1" vertex="1">
          <mxGeometry x="350" y="320" width="100" height="40" as="geometry" />
        </mxCell>
        <mxCell id="My69YMBWia484eMZ25qk-16" style="rounded=0;orthogonalLoop=1;jettySize=auto;html=1;entryX=0.5;entryY=0;entryDx=0;entryDy=0;endArrow=none;startFill=0;" parent="1" source="My69YMBWia484eMZ25qk-14" target="My69YMBWia484eMZ25qk-1" edge="1">
          <mxGeometry relative="1" as="geometry" />
        </mxCell>
        <mxCell id="My69YMBWia484eMZ25qk-14" value="创建时间" style="ellipse;whiteSpace=wrap;html=1;align=center;" parent="1" vertex="1">
          <mxGeometry x="280" y="170" width="100" height="40" as="geometry" />
        </mxCell>
        <mxCell id="My69YMBWia484eMZ25qk-15" value="修改时间" style="ellipse;whiteSpace=wrap;html=1;align=center;" parent="1" vertex="1">
          <mxGeometry x="360" y="180" width="100" height="40" as="geometry" />
        </mxCell>
        <mxCell id="My69YMBWia484eMZ25qk-17" style="rounded=0;orthogonalLoop=1;jettySize=auto;html=1;entryX=0.85;entryY=-0.05;entryDx=0;entryDy=0;entryPerimeter=0;endArrow=none;startFill=0;" parent="1" source="My69YMBWia484eMZ25qk-15" target="My69YMBWia484eMZ25qk-1" edge="1">
          <mxGeometry relative="1" as="geometry" />
        </mxCell>
        <mxCell id="My69YMBWia484eMZ25qk-18" style="rounded=0;orthogonalLoop=1;jettySize=auto;html=1;entryX=0.43;entryY=0.825;entryDx=0;entryDy=0;entryPerimeter=0;startArrow=none;startFill=0;endArrow=none;" parent="1" source="My69YMBWia484eMZ25qk-12" target="My69YMBWia484eMZ25qk-1" edge="1">
          <mxGeometry relative="1" as="geometry" />
        </mxCell>
        <mxCell id="My69YMBWia484eMZ25qk-63" style="rounded=0;orthogonalLoop=1;jettySize=auto;html=1;entryX=0;entryY=0.5;entryDx=0;entryDy=0;endArrow=none;startFill=0;" parent="1" source="My69YMBWia484eMZ25qk-20" target="My69YMBWia484eMZ25qk-58" edge="1">
          <mxGeometry relative="1" as="geometry" />
        </mxCell>
        <mxCell id="My69YMBWia484eMZ25qk-20" value="短链接分组" style="whiteSpace=wrap;html=1;align=center;" parent="1" vertex="1">
          <mxGeometry x="660" y="255" width="100" height="40" as="geometry" />
        </mxCell>
        <mxCell id="My69YMBWia484eMZ25qk-21" value="分组名称" style="ellipse;whiteSpace=wrap;html=1;align=center;" parent="1" vertex="1">
          <mxGeometry x="660" y="335" width="100" height="40" as="geometry" />
        </mxCell>
        <mxCell id="My69YMBWia484eMZ25qk-22" style="rounded=0;orthogonalLoop=1;jettySize=auto;html=1;entryX=0.17;entryY=0.95;entryDx=0;entryDy=0;entryPerimeter=0;endArrow=none;startFill=0;" parent="1" source="My69YMBWia484eMZ25qk-21" target="My69YMBWia484eMZ25qk-20" edge="1">
          <mxGeometry relative="1" as="geometry" />
        </mxCell>
        <mxCell id="My69YMBWia484eMZ25qk-23" style="rounded=0;orthogonalLoop=1;jettySize=auto;html=1;entryX=0;entryY=0.5;entryDx=0;entryDy=0;endArrow=none;endFill=1;startFill=0;" parent="1" source="My69YMBWia484eMZ25qk-24" target="My69YMBWia484eMZ25qk-20" edge="1">
          <mxGeometry relative="1" as="geometry" />
        </mxCell>
        <mxCell id="My69YMBWia484eMZ25qk-24" value="分组标识" style="ellipse;whiteSpace=wrap;html=1;align=center;" parent="1" vertex="1">
          <mxGeometry x="600" y="320" width="100" height="40" as="geometry" />
        </mxCell>
        <mxCell id="My69YMBWia484eMZ25qk-25" style="rounded=0;orthogonalLoop=1;jettySize=auto;html=1;entryX=0;entryY=0.25;entryDx=0;entryDy=0;endArrow=none;endFill=1;startFill=0;" parent="1" source="My69YMBWia484eMZ25qk-26" target="My69YMBWia484eMZ25qk-20" edge="1">
          <mxGeometry relative="1" as="geometry" />
        </mxCell>
        <mxCell id="My69YMBWia484eMZ25qk-26" value="分组id" style="ellipse;whiteSpace=wrap;html=1;align=center;" parent="1" vertex="1">
          <mxGeometry x="540" y="295" width="100" height="40" as="geometry" />
        </mxCell>
        <mxCell id="My69YMBWia484eMZ25qk-29" value="用户名" style="ellipse;whiteSpace=wrap;html=1;align=center;" parent="1" vertex="1">
          <mxGeometry x="710" y="305" width="100" height="40" as="geometry" />
        </mxCell>
        <mxCell id="My69YMBWia484eMZ25qk-30" style="rounded=0;orthogonalLoop=1;jettySize=auto;html=1;endArrow=none;startFill=0;" parent="1" source="My69YMBWia484eMZ25qk-31" target="My69YMBWia484eMZ25qk-20" edge="1">
          <mxGeometry relative="1" as="geometry" />
        </mxCell>
        <mxCell id="My69YMBWia484eMZ25qk-31" value="分组排序" style="ellipse;whiteSpace=wrap;html=1;align=center;" parent="1" vertex="1">
          <mxGeometry x="760" y="205" width="100" height="40" as="geometry" />
        </mxCell>
        <mxCell id="My69YMBWia484eMZ25qk-32" style="rounded=0;orthogonalLoop=1;jettySize=auto;html=1;entryX=0.5;entryY=0;entryDx=0;entryDy=0;endArrow=none;startFill=0;" parent="1" source="My69YMBWia484eMZ25qk-33" target="My69YMBWia484eMZ25qk-20" edge="1">
          <mxGeometry relative="1" as="geometry" />
        </mxCell>
        <mxCell id="My69YMBWia484eMZ25qk-33" value="创建时间" style="ellipse;whiteSpace=wrap;html=1;align=center;" parent="1" vertex="1">
          <mxGeometry x="600" y="200" width="100" height="40" as="geometry" />
        </mxCell>
        <mxCell id="My69YMBWia484eMZ25qk-34" value="修改时间" style="ellipse;whiteSpace=wrap;html=1;align=center;" parent="1" vertex="1">
          <mxGeometry x="690" y="180" width="100" height="40" as="geometry" />
        </mxCell>
        <mxCell id="My69YMBWia484eMZ25qk-35" style="rounded=0;orthogonalLoop=1;jettySize=auto;html=1;entryX=0.85;entryY=-0.05;entryDx=0;entryDy=0;entryPerimeter=0;endArrow=none;startFill=0;" parent="1" source="My69YMBWia484eMZ25qk-34" target="My69YMBWia484eMZ25qk-20" edge="1">
          <mxGeometry relative="1" as="geometry" />
        </mxCell>
        <mxCell id="My69YMBWia484eMZ25qk-36" style="rounded=0;orthogonalLoop=1;jettySize=auto;html=1;entryX=0.43;entryY=0.825;entryDx=0;entryDy=0;entryPerimeter=0;startArrow=none;startFill=0;endArrow=none;" parent="1" source="My69YMBWia484eMZ25qk-29" target="My69YMBWia484eMZ25qk-20" edge="1">
          <mxGeometry relative="1" as="geometry" />
        </mxCell>
        <mxCell id="My69YMBWia484eMZ25qk-40" value="" style="rounded=0;orthogonalLoop=1;jettySize=auto;html=1;endArrow=none;startFill=0;" parent="1" source="My69YMBWia484eMZ25qk-1" target="My69YMBWia484eMZ25qk-39" edge="1">
          <mxGeometry relative="1" as="geometry">
            <mxPoint x="660" y="270" as="targetPoint" />
            <mxPoint x="410" y="270" as="sourcePoint" />
          </mxGeometry>
        </mxCell>
        <mxCell id="My69YMBWia484eMZ25qk-39" value="创建" style="shape=rhombus;double=1;perimeter=rhombusPerimeter;whiteSpace=wrap;html=1;align=center;" parent="1" vertex="1">
          <mxGeometry x="470" y="240" width="120" height="60" as="geometry" />
        </mxCell>
        <mxCell id="My69YMBWia484eMZ25qk-42" style="rounded=0;orthogonalLoop=1;jettySize=auto;html=1;endArrow=none;startFill=0;" parent="1" source="My69YMBWia484eMZ25qk-58" edge="1">
          <mxGeometry relative="1" as="geometry">
            <mxPoint x="1080" y="270" as="targetPoint" />
          </mxGeometry>
        </mxCell>
        <mxCell id="My69YMBWia484eMZ25qk-43" value="短链接" style="whiteSpace=wrap;html=1;align=center;" parent="1" vertex="1">
          <mxGeometry x="1080" y="255" width="100" height="40" as="geometry" />
        </mxCell>
        <mxCell id="My69YMBWia484eMZ25qk-44" value="短链接" style="ellipse;whiteSpace=wrap;html=1;align=center;" parent="1" vertex="1">
          <mxGeometry x="900" y="360" width="100" height="40" as="geometry" />
        </mxCell>
        <mxCell id="My69YMBWia484eMZ25qk-45" style="rounded=0;orthogonalLoop=1;jettySize=auto;html=1;entryX=0.17;entryY=0.95;entryDx=0;entryDy=0;entryPerimeter=0;endArrow=none;startFill=0;" parent="1" source="My69YMBWia484eMZ25qk-44" target="My69YMBWia484eMZ25qk-43" edge="1">
          <mxGeometry relative="1" as="geometry" />
        </mxCell>
        <mxCell id="My69YMBWia484eMZ25qk-46" style="rounded=0;orthogonalLoop=1;jettySize=auto;html=1;entryX=0;entryY=0.5;entryDx=0;entryDy=0;endArrow=none;endFill=1;startFill=0;" parent="1" source="My69YMBWia484eMZ25qk-47" target="My69YMBWia484eMZ25qk-43" edge="1">
          <mxGeometry relative="1" as="geometry" />
        </mxCell>
        <mxCell id="My69YMBWia484eMZ25qk-47" value="域名" style="ellipse;whiteSpace=wrap;html=1;align=center;" parent="1" vertex="1">
          <mxGeometry x="950" y="330" width="100" height="40" as="geometry" />
        </mxCell>
        <mxCell id="My69YMBWia484eMZ25qk-48" style="rounded=0;orthogonalLoop=1;jettySize=auto;html=1;entryX=0;entryY=0.25;entryDx=0;entryDy=0;endArrow=none;endFill=1;startFill=0;" parent="1" source="My69YMBWia484eMZ25qk-49" target="My69YMBWia484eMZ25qk-43" edge="1">
          <mxGeometry relative="1" as="geometry" />
        </mxCell>
        <mxCell id="My69YMBWia484eMZ25qk-49" value="唯一id" style="ellipse;whiteSpace=wrap;html=1;align=center;" parent="1" vertex="1">
          <mxGeometry x="860" y="330" width="100" height="40" as="geometry" />
        </mxCell>
        <mxCell id="My69YMBWia484eMZ25qk-50" value="完整链接" style="ellipse;whiteSpace=wrap;html=1;align=center;" parent="1" vertex="1">
          <mxGeometry x="990" y="370" width="100" height="40" as="geometry" />
        </mxCell>
        <mxCell id="My69YMBWia484eMZ25qk-51" style="rounded=0;orthogonalLoop=1;jettySize=auto;html=1;endArrow=none;startFill=0;" parent="1" source="My69YMBWia484eMZ25qk-52" target="My69YMBWia484eMZ25qk-43" edge="1">
          <mxGeometry relative="1" as="geometry" />
        </mxCell>
        <mxCell id="My69YMBWia484eMZ25qk-52" value="分组排序" style="ellipse;whiteSpace=wrap;html=1;align=center;" parent="1" vertex="1">
          <mxGeometry x="1040" y="130" width="100" height="40" as="geometry" />
        </mxCell>
        <mxCell id="My69YMBWia484eMZ25qk-53" style="rounded=0;orthogonalLoop=1;jettySize=auto;html=1;entryX=0.5;entryY=0;entryDx=0;entryDy=0;endArrow=none;startFill=0;" parent="1" source="My69YMBWia484eMZ25qk-54" target="My69YMBWia484eMZ25qk-43" edge="1">
          <mxGeometry relative="1" as="geometry" />
        </mxCell>
        <mxCell id="My69YMBWia484eMZ25qk-54" value="创建时间" style="ellipse;whiteSpace=wrap;html=1;align=center;" parent="1" vertex="1">
          <mxGeometry x="890" y="200" width="100" height="40" as="geometry" />
        </mxCell>
        <mxCell id="My69YMBWia484eMZ25qk-55" value="修改时间" style="ellipse;whiteSpace=wrap;html=1;align=center;" parent="1" vertex="1">
          <mxGeometry x="970" y="140" width="100" height="40" as="geometry" />
        </mxCell>
        <mxCell id="My69YMBWia484eMZ25qk-56" style="rounded=0;orthogonalLoop=1;jettySize=auto;html=1;entryX=0.85;entryY=-0.05;entryDx=0;entryDy=0;entryPerimeter=0;endArrow=none;startFill=0;" parent="1" edge="1">
          <mxGeometry relative="1" as="geometry">
            <mxPoint x="1069.9982141694459" y="180.7840460912762" as="sourcePoint" />
            <mxPoint x="1137.83" y="255" as="targetPoint" />
          </mxGeometry>
        </mxCell>
        <mxCell id="My69YMBWia484eMZ25qk-57" style="rounded=0;orthogonalLoop=1;jettySize=auto;html=1;entryX=0.43;entryY=0.825;entryDx=0;entryDy=0;entryPerimeter=0;startArrow=none;startFill=0;endArrow=none;" parent="1" source="My69YMBWia484eMZ25qk-50" target="My69YMBWia484eMZ25qk-43" edge="1">
          <mxGeometry relative="1" as="geometry" />
        </mxCell>
        <mxCell id="My69YMBWia484eMZ25qk-58" value="包含" style="shape=rhombus;double=1;perimeter=rhombusPerimeter;whiteSpace=wrap;html=1;align=center;" parent="1" vertex="1">
          <mxGeometry x="860" y="245" width="120" height="60" as="geometry" />
        </mxCell>
        <mxCell id="My69YMBWia484eMZ25qk-76" style="rounded=0;orthogonalLoop=1;jettySize=auto;html=1;endArrow=none;startFill=0;" parent="1" source="My69YMBWia484eMZ25qk-64" edge="1">
          <mxGeometry relative="1" as="geometry">
            <mxPoint x="1180" y="270" as="targetPoint" />
          </mxGeometry>
        </mxCell>
        <mxCell id="My69YMBWia484eMZ25qk-64" value="分组标识" style="ellipse;whiteSpace=wrap;html=1;align=center;" parent="1" vertex="1">
          <mxGeometry x="1150" y="190" width="100" height="40" as="geometry" />
        </mxCell>
        <mxCell id="My69YMBWia484eMZ25qk-65" value="点击量" style="ellipse;whiteSpace=wrap;html=1;align=center;" parent="1" vertex="1">
          <mxGeometry x="950" y="400" width="100" height="40" as="geometry" />
        </mxCell>
        <mxCell id="My69YMBWia484eMZ25qk-74" style="rounded=0;orthogonalLoop=1;jettySize=auto;html=1;entryX=0.75;entryY=1;entryDx=0;entryDy=0;endArrow=none;startFill=0;" parent="1" source="My69YMBWia484eMZ25qk-67" target="My69YMBWia484eMZ25qk-43" edge="1">
          <mxGeometry relative="1" as="geometry" />
        </mxCell>
        <mxCell id="My69YMBWia484eMZ25qk-66" value="历史UV" style="ellipse;whiteSpace=wrap;html=1;align=center;" parent="1" vertex="1">
          <mxGeometry x="1050" y="420" width="100" height="40" as="geometry" />
        </mxCell>
        <mxCell id="My69YMBWia484eMZ25qk-73" style="rounded=0;orthogonalLoop=1;jettySize=auto;html=1;entryX=1;entryY=0.75;entryDx=0;entryDy=0;endArrow=none;startFill=0;" parent="1" source="My69YMBWia484eMZ25qk-67" target="My69YMBWia484eMZ25qk-43" edge="1">
          <mxGeometry relative="1" as="geometry" />
        </mxCell>
        <mxCell id="My69YMBWia484eMZ25qk-78" style="rounded=0;orthogonalLoop=1;jettySize=auto;html=1;entryX=0.25;entryY=0;entryDx=0;entryDy=0;endArrow=none;startFill=0;" parent="1" source="My69YMBWia484eMZ25qk-68" target="My69YMBWia484eMZ25qk-43" edge="1">
          <mxGeometry relative="1" as="geometry" />
        </mxCell>
        <mxCell id="My69YMBWia484eMZ25qk-68" value="描述" style="ellipse;whiteSpace=wrap;html=1;align=center;" parent="1" vertex="1">
          <mxGeometry x="920" y="160" width="100" height="40" as="geometry" />
        </mxCell>
        <mxCell id="My69YMBWia484eMZ25qk-77" style="rounded=0;orthogonalLoop=1;jettySize=auto;html=1;endArrow=none;startFill=0;" parent="1" source="My69YMBWia484eMZ25qk-69" edge="1">
          <mxGeometry relative="1" as="geometry">
            <mxPoint x="1180" y="270" as="targetPoint" />
          </mxGeometry>
        </mxCell>
        <mxCell id="My69YMBWia484eMZ25qk-69" value="有效期" style="ellipse;whiteSpace=wrap;html=1;align=center;" parent="1" vertex="1">
          <mxGeometry x="1080" y="170" width="100" height="40" as="geometry" />
        </mxCell>
        <mxCell id="My69YMBWia484eMZ25qk-75" style="rounded=0;orthogonalLoop=1;jettySize=auto;html=1;entryX=1;entryY=0.5;entryDx=0;entryDy=0;endArrow=none;startFill=0;" parent="1" source="My69YMBWia484eMZ25qk-70" target="My69YMBWia484eMZ25qk-43" edge="1">
          <mxGeometry relative="1" as="geometry" />
        </mxCell>
        <mxCell id="My69YMBWia484eMZ25qk-70" value="启动标识" style="ellipse;whiteSpace=wrap;html=1;align=center;" parent="1" vertex="1">
          <mxGeometry x="1130" y="140" width="100" height="40" as="geometry" />
        </mxCell>
        <mxCell id="My69YMBWia484eMZ25qk-72" style="rounded=0;orthogonalLoop=1;jettySize=auto;html=1;entryX=0.84;entryY=1;entryDx=0;entryDy=0;entryPerimeter=0;endArrow=none;startFill=0;" parent="1" source="My69YMBWia484eMZ25qk-65" target="My69YMBWia484eMZ25qk-43" edge="1">
          <mxGeometry relative="1" as="geometry" />
        </mxCell>
        <mxCell id="My69YMBWia484eMZ25qk-80" value="短链接访问监控" style="whiteSpace=wrap;html=1;align=center;" parent="1" vertex="1">
          <mxGeometry x="1125" y="-120" width="100" height="40" as="geometry" />
        </mxCell>
        <mxCell id="My69YMBWia484eMZ25qk-109" value="" style="rounded=0;orthogonalLoop=1;jettySize=auto;html=1;entryX=0.75;entryY=1;entryDx=0;entryDy=0;endArrow=none;startFill=0;" parent="1" source="My69YMBWia484eMZ25qk-66" target="My69YMBWia484eMZ25qk-67" edge="1">
          <mxGeometry relative="1" as="geometry">
            <mxPoint x="1108" y="420" as="sourcePoint" />
            <mxPoint x="1155" y="295" as="targetPoint" />
          </mxGeometry>
        </mxCell>
        <mxCell id="My69YMBWia484eMZ25qk-67" value="历史PV" style="ellipse;whiteSpace=wrap;html=1;align=center;" parent="1" vertex="1">
          <mxGeometry x="1080" y="340" width="100" height="40" as="geometry" />
        </mxCell>
        <mxCell id="2ZsNSoUysK3gvo_c3f-I-6" style="rounded=0;orthogonalLoop=1;jettySize=auto;html=1;endArrow=none;startFill=0;" edge="1" parent="1" source="My69YMBWia484eMZ25qk-110" target="My69YMBWia484eMZ25qk-43">
          <mxGeometry relative="1" as="geometry" />
        </mxCell>
        <mxCell id="My69YMBWia484eMZ25qk-110" value="包含" style="shape=rhombus;double=1;perimeter=rhombusPerimeter;whiteSpace=wrap;html=1;align=center;" parent="1" vertex="1">
          <mxGeometry x="1125" y="30" width="120" height="60" as="geometry" />
        </mxCell>
        <mxCell id="My69YMBWia484eMZ25qk-127" style="rounded=0;orthogonalLoop=1;jettySize=auto;html=1;endArrow=none;startFill=0;" parent="1" source="My69YMBWia484eMZ25qk-114" target="My69YMBWia484eMZ25qk-80" edge="1">
          <mxGeometry relative="1" as="geometry" />
        </mxCell>
        <mxCell id="My69YMBWia484eMZ25qk-114" value="分组标识" style="ellipse;whiteSpace=wrap;html=1;align=center;" parent="1" vertex="1">
          <mxGeometry x="1115" y="-220" width="100" height="40" as="geometry" />
        </mxCell>
        <mxCell id="My69YMBWia484eMZ25qk-136" style="rounded=0;orthogonalLoop=1;jettySize=auto;html=1;endArrow=none;startFill=0;" parent="1" source="My69YMBWia484eMZ25qk-115" target="My69YMBWia484eMZ25qk-80" edge="1">
          <mxGeometry relative="1" as="geometry" />
        </mxCell>
        <mxCell id="My69YMBWia484eMZ25qk-115" value="日期" style="ellipse;whiteSpace=wrap;html=1;align=center;" parent="1" vertex="1">
          <mxGeometry x="1065" y="-60" width="100" height="40" as="geometry" />
        </mxCell>
        <mxCell id="My69YMBWia484eMZ25qk-135" style="rounded=0;orthogonalLoop=1;jettySize=auto;html=1;endArrow=none;startFill=0;" parent="1" source="My69YMBWia484eMZ25qk-116" target="My69YMBWia484eMZ25qk-80" edge="1">
          <mxGeometry relative="1" as="geometry" />
        </mxCell>
        <mxCell id="My69YMBWia484eMZ25qk-116" value="pv" style="ellipse;whiteSpace=wrap;html=1;align=center;" parent="1" vertex="1">
          <mxGeometry x="1165" y="-50" width="100" height="40" as="geometry" />
        </mxCell>
        <mxCell id="My69YMBWia484eMZ25qk-134" style="rounded=0;orthogonalLoop=1;jettySize=auto;html=1;endArrow=none;startFill=0;" parent="1" source="My69YMBWia484eMZ25qk-117" target="My69YMBWia484eMZ25qk-80" edge="1">
          <mxGeometry relative="1" as="geometry" />
        </mxCell>
        <mxCell id="My69YMBWia484eMZ25qk-117" value="uv" style="ellipse;whiteSpace=wrap;html=1;align=center;" parent="1" vertex="1">
          <mxGeometry x="1265" y="-50" width="100" height="40" as="geometry" />
        </mxCell>
        <mxCell id="My69YMBWia484eMZ25qk-131" style="rounded=0;orthogonalLoop=1;jettySize=auto;html=1;endArrow=none;startFill=0;" parent="1" source="My69YMBWia484eMZ25qk-118" target="My69YMBWia484eMZ25qk-80" edge="1">
          <mxGeometry relative="1" as="geometry" />
        </mxCell>
        <mxCell id="My69YMBWia484eMZ25qk-118" value="完整链接" style="ellipse;whiteSpace=wrap;html=1;align=center;" parent="1" vertex="1">
          <mxGeometry x="1215" y="-200" width="100" height="40" as="geometry" />
        </mxCell>
        <mxCell id="My69YMBWia484eMZ25qk-119" value="唯一id" style="ellipse;whiteSpace=wrap;html=1;align=center;" parent="1" vertex="1">
          <mxGeometry x="1045" y="-190" width="100" height="40" as="geometry" />
        </mxCell>
        <mxCell id="My69YMBWia484eMZ25qk-133" style="rounded=0;orthogonalLoop=1;jettySize=auto;html=1;endArrow=none;startFill=0;" parent="1" source="My69YMBWia484eMZ25qk-122" target="My69YMBWia484eMZ25qk-80" edge="1">
          <mxGeometry relative="1" as="geometry" />
        </mxCell>
        <mxCell id="My69YMBWia484eMZ25qk-122" value="小时" style="ellipse;whiteSpace=wrap;html=1;align=center;" parent="1" vertex="1">
          <mxGeometry x="1265" y="-110" width="100" height="40" as="geometry" />
        </mxCell>
        <mxCell id="My69YMBWia484eMZ25qk-132" style="rounded=0;orthogonalLoop=1;jettySize=auto;html=1;endArrow=none;startFill=0;" parent="1" source="My69YMBWia484eMZ25qk-123" target="My69YMBWia484eMZ25qk-80" edge="1">
          <mxGeometry relative="1" as="geometry" />
        </mxCell>
        <mxCell id="My69YMBWia484eMZ25qk-123" value="星期" style="ellipse;whiteSpace=wrap;html=1;align=center;" parent="1" vertex="1">
          <mxGeometry x="1255" y="-160" width="100" height="40" as="geometry" />
        </mxCell>
        <mxCell id="My69YMBWia484eMZ25qk-129" style="rounded=0;orthogonalLoop=1;jettySize=auto;html=1;entryX=0.75;entryY=0;entryDx=0;entryDy=0;endArrow=none;startFill=0;" parent="1" source="My69YMBWia484eMZ25qk-124" target="My69YMBWia484eMZ25qk-80" edge="1">
          <mxGeometry relative="1" as="geometry" />
        </mxCell>
        <mxCell id="My69YMBWia484eMZ25qk-124" value="创建时间" style="ellipse;whiteSpace=wrap;html=1;align=center;" parent="1" vertex="1">
          <mxGeometry x="1165" y="-260" width="100" height="40" as="geometry" />
        </mxCell>
        <mxCell id="My69YMBWia484eMZ25qk-125" value="修改时间" style="ellipse;whiteSpace=wrap;html=1;align=center;" parent="1" vertex="1">
          <mxGeometry x="1225" y="-240" width="100" height="40" as="geometry" />
        </mxCell>
        <mxCell id="My69YMBWia484eMZ25qk-128" style="rounded=0;orthogonalLoop=1;jettySize=auto;html=1;entryX=0.33;entryY=0.15;entryDx=0;entryDy=0;entryPerimeter=0;endArrow=none;startFill=0;" parent="1" source="My69YMBWia484eMZ25qk-119" target="My69YMBWia484eMZ25qk-80" edge="1">
          <mxGeometry relative="1" as="geometry" />
        </mxCell>
        <mxCell id="My69YMBWia484eMZ25qk-130" style="rounded=0;orthogonalLoop=1;jettySize=auto;html=1;entryX=0.9;entryY=0.1;entryDx=0;entryDy=0;entryPerimeter=0;endArrow=none;startFill=0;" parent="1" source="My69YMBWia484eMZ25qk-125" target="My69YMBWia484eMZ25qk-80" edge="1">
          <mxGeometry relative="1" as="geometry" />
        </mxCell>
        <mxCell id="2ZsNSoUysK3gvo_c3f-I-7" style="rounded=0;orthogonalLoop=1;jettySize=auto;html=1;entryX=0;entryY=0.5;entryDx=0;entryDy=0;endArrow=none;startFill=0;" edge="1" parent="1" source="My69YMBWia484eMZ25qk-138" target="My69YMBWia484eMZ25qk-140">
          <mxGeometry relative="1" as="geometry" />
        </mxCell>
        <mxCell id="My69YMBWia484eMZ25qk-138" value="包含" style="shape=rhombus;double=1;perimeter=rhombusPerimeter;whiteSpace=wrap;html=1;align=center;rotation=-15;" parent="1" vertex="1">
          <mxGeometry x="1350" y="20" width="120" height="60" as="geometry" />
        </mxCell>
        <mxCell id="My69YMBWia484eMZ25qk-139" style="rounded=0;orthogonalLoop=1;jettySize=auto;html=1;entryX=0.083;entryY=0.567;entryDx=0;entryDy=0;entryPerimeter=0;endArrow=none;startFill=0;" parent="1" source="My69YMBWia484eMZ25qk-43" target="My69YMBWia484eMZ25qk-138" edge="1">
          <mxGeometry relative="1" as="geometry" />
        </mxCell>
        <mxCell id="My69YMBWia484eMZ25qk-140" value="短链接浏览器监控" style="whiteSpace=wrap;html=1;align=center;" parent="1" vertex="1">
          <mxGeometry x="1602.71" y="-15" width="100" height="40" as="geometry" />
        </mxCell>
        <mxCell id="My69YMBWia484eMZ25qk-155" style="rounded=0;orthogonalLoop=1;jettySize=auto;html=1;endArrow=none;startFill=0;" parent="1" source="My69YMBWia484eMZ25qk-142" target="My69YMBWia484eMZ25qk-140" edge="1">
          <mxGeometry relative="1" as="geometry" />
        </mxCell>
        <mxCell id="My69YMBWia484eMZ25qk-142" value="日期" style="ellipse;whiteSpace=wrap;html=1;align=center;" parent="1" vertex="1">
          <mxGeometry x="1602.71" y="55" width="100" height="40" as="geometry" />
        </mxCell>
        <mxCell id="My69YMBWia484eMZ25qk-149" style="rounded=0;orthogonalLoop=1;jettySize=auto;html=1;endArrow=none;startFill=0;" parent="1" source="My69YMBWia484eMZ25qk-143" target="My69YMBWia484eMZ25qk-140" edge="1">
          <mxGeometry relative="1" as="geometry" />
        </mxCell>
        <mxCell id="My69YMBWia484eMZ25qk-143" value="分组标识" style="ellipse;whiteSpace=wrap;html=1;align=center;" parent="1" vertex="1">
          <mxGeometry x="1522.71" y="25" width="100" height="40" as="geometry" />
        </mxCell>
        <mxCell id="My69YMBWia484eMZ25qk-154" style="rounded=0;orthogonalLoop=1;jettySize=auto;html=1;endArrow=none;startFill=0;" parent="1" source="My69YMBWia484eMZ25qk-144" target="My69YMBWia484eMZ25qk-140" edge="1">
          <mxGeometry relative="1" as="geometry" />
        </mxCell>
        <mxCell id="My69YMBWia484eMZ25qk-144" value="完整链接" style="ellipse;whiteSpace=wrap;html=1;align=center;" parent="1" vertex="1">
          <mxGeometry x="1682.71" y="20" width="100" height="40" as="geometry" />
        </mxCell>
        <mxCell id="My69YMBWia484eMZ25qk-150" style="rounded=0;orthogonalLoop=1;jettySize=auto;html=1;endArrow=none;startFill=0;" parent="1" source="My69YMBWia484eMZ25qk-145" target="My69YMBWia484eMZ25qk-140" edge="1">
          <mxGeometry relative="1" as="geometry" />
        </mxCell>
        <mxCell id="My69YMBWia484eMZ25qk-145" value="浏览器" style="ellipse;whiteSpace=wrap;html=1;align=center;" parent="1" vertex="1">
          <mxGeometry x="1542.71" y="-65" width="100" height="40" as="geometry" />
        </mxCell>
        <mxCell id="My69YMBWia484eMZ25qk-146" value="唯一id" style="ellipse;whiteSpace=wrap;html=1;align=center;" parent="1" vertex="1">
          <mxGeometry x="1622.71" y="-70" width="100" height="40" as="geometry" />
        </mxCell>
        <mxCell id="My69YMBWia484eMZ25qk-153" style="rounded=0;orthogonalLoop=1;jettySize=auto;html=1;entryX=1;entryY=0.75;entryDx=0;entryDy=0;endArrow=none;startFill=0;" parent="1" source="My69YMBWia484eMZ25qk-147" target="My69YMBWia484eMZ25qk-140" edge="1">
          <mxGeometry relative="1" as="geometry" />
        </mxCell>
        <mxCell id="My69YMBWia484eMZ25qk-147" value="创建时间" style="ellipse;whiteSpace=wrap;html=1;align=center;" parent="1" vertex="1">
          <mxGeometry x="1702.71" y="-25" width="100" height="40" as="geometry" />
        </mxCell>
        <mxCell id="My69YMBWia484eMZ25qk-152" style="rounded=0;orthogonalLoop=1;jettySize=auto;html=1;endArrow=none;startFill=0;" parent="1" source="My69YMBWia484eMZ25qk-148" target="My69YMBWia484eMZ25qk-140" edge="1">
          <mxGeometry relative="1" as="geometry" />
        </mxCell>
        <mxCell id="My69YMBWia484eMZ25qk-148" value="修改时间" style="ellipse;whiteSpace=wrap;html=1;align=center;" parent="1" vertex="1">
          <mxGeometry x="1702.71" y="-65" width="100" height="40" as="geometry" />
        </mxCell>
        <mxCell id="My69YMBWia484eMZ25qk-151" style="rounded=0;orthogonalLoop=1;jettySize=auto;html=1;entryX=0.78;entryY=0.2;entryDx=0;entryDy=0;entryPerimeter=0;endArrow=none;startFill=0;" parent="1" source="My69YMBWia484eMZ25qk-146" target="My69YMBWia484eMZ25qk-140" edge="1">
          <mxGeometry relative="1" as="geometry" />
        </mxCell>
        <mxCell id="My69YMBWia484eMZ25qk-173" style="rounded=0;orthogonalLoop=1;jettySize=auto;html=1;endArrow=none;startFill=0;" parent="1" source="My69YMBWia484eMZ25qk-156" target="My69YMBWia484eMZ25qk-43" edge="1">
          <mxGeometry relative="1" as="geometry" />
        </mxCell>
        <mxCell id="2ZsNSoUysK3gvo_c3f-I-8" style="rounded=0;orthogonalLoop=1;jettySize=auto;html=1;endArrow=none;startFill=0;" edge="1" parent="1" source="My69YMBWia484eMZ25qk-156" target="My69YMBWia484eMZ25qk-158">
          <mxGeometry relative="1" as="geometry" />
        </mxCell>
        <mxCell id="My69YMBWia484eMZ25qk-156" value="包含" style="shape=rhombus;double=1;perimeter=rhombusPerimeter;whiteSpace=wrap;html=1;align=center;rotation=-15;" parent="1" vertex="1">
          <mxGeometry x="1315" y="165" width="120" height="60" as="geometry" />
        </mxCell>
        <mxCell id="My69YMBWia484eMZ25qk-158" value="短链接设备监控" style="whiteSpace=wrap;html=1;align=center;" parent="1" vertex="1">
          <mxGeometry x="1592.71" y="172.5" width="100" height="40" as="geometry" />
        </mxCell>
        <mxCell id="My69YMBWia484eMZ25qk-159" style="rounded=0;orthogonalLoop=1;jettySize=auto;html=1;endArrow=none;startFill=0;" parent="1" source="My69YMBWia484eMZ25qk-160" target="My69YMBWia484eMZ25qk-158" edge="1">
          <mxGeometry relative="1" as="geometry" />
        </mxCell>
        <mxCell id="My69YMBWia484eMZ25qk-160" value="日期" style="ellipse;whiteSpace=wrap;html=1;align=center;" parent="1" vertex="1">
          <mxGeometry x="1592.71" y="242.5" width="100" height="40" as="geometry" />
        </mxCell>
        <mxCell id="My69YMBWia484eMZ25qk-161" style="rounded=0;orthogonalLoop=1;jettySize=auto;html=1;endArrow=none;startFill=0;" parent="1" source="My69YMBWia484eMZ25qk-162" target="My69YMBWia484eMZ25qk-158" edge="1">
          <mxGeometry relative="1" as="geometry" />
        </mxCell>
        <mxCell id="My69YMBWia484eMZ25qk-162" value="分组标识" style="ellipse;whiteSpace=wrap;html=1;align=center;" parent="1" vertex="1">
          <mxGeometry x="1512.71" y="212.5" width="100" height="40" as="geometry" />
        </mxCell>
        <mxCell id="My69YMBWia484eMZ25qk-163" style="rounded=0;orthogonalLoop=1;jettySize=auto;html=1;endArrow=none;startFill=0;" parent="1" source="My69YMBWia484eMZ25qk-164" target="My69YMBWia484eMZ25qk-158" edge="1">
          <mxGeometry relative="1" as="geometry" />
        </mxCell>
        <mxCell id="My69YMBWia484eMZ25qk-164" value="完整链接" style="ellipse;whiteSpace=wrap;html=1;align=center;" parent="1" vertex="1">
          <mxGeometry x="1682.71" y="222.5" width="100" height="40" as="geometry" />
        </mxCell>
        <mxCell id="My69YMBWia484eMZ25qk-165" style="rounded=0;orthogonalLoop=1;jettySize=auto;html=1;endArrow=none;startFill=0;" parent="1" source="My69YMBWia484eMZ25qk-166" target="My69YMBWia484eMZ25qk-158" edge="1">
          <mxGeometry relative="1" as="geometry" />
        </mxCell>
        <mxCell id="My69YMBWia484eMZ25qk-166" value="访问设备" style="ellipse;whiteSpace=wrap;html=1;align=center;" parent="1" vertex="1">
          <mxGeometry x="1532.71" y="122.5" width="100" height="40" as="geometry" />
        </mxCell>
        <mxCell id="My69YMBWia484eMZ25qk-167" value="唯一id" style="ellipse;whiteSpace=wrap;html=1;align=center;" parent="1" vertex="1">
          <mxGeometry x="1612.71" y="117.5" width="100" height="40" as="geometry" />
        </mxCell>
        <mxCell id="My69YMBWia484eMZ25qk-168" style="rounded=0;orthogonalLoop=1;jettySize=auto;html=1;entryX=1;entryY=0.75;entryDx=0;entryDy=0;endArrow=none;startFill=0;" parent="1" source="My69YMBWia484eMZ25qk-169" target="My69YMBWia484eMZ25qk-158" edge="1">
          <mxGeometry relative="1" as="geometry" />
        </mxCell>
        <mxCell id="My69YMBWia484eMZ25qk-169" value="创建时间" style="ellipse;whiteSpace=wrap;html=1;align=center;" parent="1" vertex="1">
          <mxGeometry x="1692.71" y="162.5" width="100" height="40" as="geometry" />
        </mxCell>
        <mxCell id="My69YMBWia484eMZ25qk-170" style="rounded=0;orthogonalLoop=1;jettySize=auto;html=1;endArrow=none;startFill=0;" parent="1" source="My69YMBWia484eMZ25qk-171" target="My69YMBWia484eMZ25qk-158" edge="1">
          <mxGeometry relative="1" as="geometry" />
        </mxCell>
        <mxCell id="My69YMBWia484eMZ25qk-171" value="修改时间" style="ellipse;whiteSpace=wrap;html=1;align=center;" parent="1" vertex="1">
          <mxGeometry x="1692.71" y="122.5" width="100" height="40" as="geometry" />
        </mxCell>
        <mxCell id="My69YMBWia484eMZ25qk-172" style="rounded=0;orthogonalLoop=1;jettySize=auto;html=1;entryX=0.78;entryY=0.2;entryDx=0;entryDy=0;entryPerimeter=0;endArrow=none;startFill=0;" parent="1" source="My69YMBWia484eMZ25qk-167" target="My69YMBWia484eMZ25qk-158" edge="1">
          <mxGeometry relative="1" as="geometry" />
        </mxCell>
        <mxCell id="My69YMBWia484eMZ25qk-191" style="rounded=0;orthogonalLoop=1;jettySize=auto;html=1;endArrow=none;startFill=0;" parent="1" source="My69YMBWia484eMZ25qk-174" edge="1">
          <mxGeometry relative="1" as="geometry">
            <mxPoint x="1170" y="280" as="targetPoint" />
          </mxGeometry>
        </mxCell>
        <mxCell id="My69YMBWia484eMZ25qk-174" value="包含" style="shape=rhombus;double=1;perimeter=rhombusPerimeter;whiteSpace=wrap;html=1;align=center;" parent="1" vertex="1">
          <mxGeometry x="1282.71" y="320" width="120" height="60" as="geometry" />
        </mxCell>
        <mxCell id="My69YMBWia484eMZ25qk-175" style="rounded=0;orthogonalLoop=1;jettySize=auto;html=1;endArrow=none;startFill=0;" parent="1" source="My69YMBWia484eMZ25qk-176" target="My69YMBWia484eMZ25qk-174" edge="1">
          <mxGeometry relative="1" as="geometry" />
        </mxCell>
        <mxCell id="My69YMBWia484eMZ25qk-176" value="短链接地区监控" style="whiteSpace=wrap;html=1;align=center;" parent="1" vertex="1">
          <mxGeometry x="1615.21" y="355" width="100" height="40" as="geometry" />
        </mxCell>
        <mxCell id="My69YMBWia484eMZ25qk-177" style="rounded=0;orthogonalLoop=1;jettySize=auto;html=1;endArrow=none;startFill=0;" parent="1" source="My69YMBWia484eMZ25qk-178" target="My69YMBWia484eMZ25qk-176" edge="1">
          <mxGeometry relative="1" as="geometry" />
        </mxCell>
        <mxCell id="My69YMBWia484eMZ25qk-178" value="日期" style="ellipse;whiteSpace=wrap;html=1;align=center;" parent="1" vertex="1">
          <mxGeometry x="1615.21" y="425" width="100" height="40" as="geometry" />
        </mxCell>
        <mxCell id="My69YMBWia484eMZ25qk-179" style="rounded=0;orthogonalLoop=1;jettySize=auto;html=1;endArrow=none;startFill=0;" parent="1" source="My69YMBWia484eMZ25qk-180" target="My69YMBWia484eMZ25qk-176" edge="1">
          <mxGeometry relative="1" as="geometry" />
        </mxCell>
        <mxCell id="My69YMBWia484eMZ25qk-180" value="分组标识" style="ellipse;whiteSpace=wrap;html=1;align=center;" parent="1" vertex="1">
          <mxGeometry x="1535.21" y="395" width="100" height="40" as="geometry" />
        </mxCell>
        <mxCell id="My69YMBWia484eMZ25qk-181" style="rounded=0;orthogonalLoop=1;jettySize=auto;html=1;endArrow=none;startFill=0;" parent="1" source="My69YMBWia484eMZ25qk-182" target="My69YMBWia484eMZ25qk-176" edge="1">
          <mxGeometry relative="1" as="geometry" />
        </mxCell>
        <mxCell id="My69YMBWia484eMZ25qk-182" value="完整链接" style="ellipse;whiteSpace=wrap;html=1;align=center;" parent="1" vertex="1">
          <mxGeometry x="1705.21" y="405" width="100" height="40" as="geometry" />
        </mxCell>
        <mxCell id="My69YMBWia484eMZ25qk-183" style="rounded=0;orthogonalLoop=1;jettySize=auto;html=1;endArrow=none;startFill=0;" parent="1" source="My69YMBWia484eMZ25qk-184" target="My69YMBWia484eMZ25qk-176" edge="1">
          <mxGeometry relative="1" as="geometry" />
        </mxCell>
        <mxCell id="My69YMBWia484eMZ25qk-184" value="省份" style="ellipse;whiteSpace=wrap;html=1;align=center;" parent="1" vertex="1">
          <mxGeometry x="1555.21" y="305" width="100" height="40" as="geometry" />
        </mxCell>
        <mxCell id="My69YMBWia484eMZ25qk-185" value="唯一id" style="ellipse;whiteSpace=wrap;html=1;align=center;" parent="1" vertex="1">
          <mxGeometry x="1635.21" y="300" width="100" height="40" as="geometry" />
        </mxCell>
        <mxCell id="My69YMBWia484eMZ25qk-186" style="rounded=0;orthogonalLoop=1;jettySize=auto;html=1;entryX=1;entryY=0.75;entryDx=0;entryDy=0;endArrow=none;startFill=0;" parent="1" source="My69YMBWia484eMZ25qk-187" target="My69YMBWia484eMZ25qk-176" edge="1">
          <mxGeometry relative="1" as="geometry" />
        </mxCell>
        <mxCell id="My69YMBWia484eMZ25qk-187" value="创建时间" style="ellipse;whiteSpace=wrap;html=1;align=center;" parent="1" vertex="1">
          <mxGeometry x="1715.21" y="345" width="100" height="40" as="geometry" />
        </mxCell>
        <mxCell id="My69YMBWia484eMZ25qk-188" style="rounded=0;orthogonalLoop=1;jettySize=auto;html=1;endArrow=none;startFill=0;" parent="1" source="My69YMBWia484eMZ25qk-189" target="My69YMBWia484eMZ25qk-176" edge="1">
          <mxGeometry relative="1" as="geometry" />
        </mxCell>
        <mxCell id="My69YMBWia484eMZ25qk-189" value="修改时间" style="ellipse;whiteSpace=wrap;html=1;align=center;" parent="1" vertex="1">
          <mxGeometry x="1715.21" y="305" width="100" height="40" as="geometry" />
        </mxCell>
        <mxCell id="My69YMBWia484eMZ25qk-190" style="rounded=0;orthogonalLoop=1;jettySize=auto;html=1;entryX=0.78;entryY=0.2;entryDx=0;entryDy=0;entryPerimeter=0;endArrow=none;startFill=0;" parent="1" source="My69YMBWia484eMZ25qk-185" target="My69YMBWia484eMZ25qk-176" edge="1">
          <mxGeometry relative="1" as="geometry" />
        </mxCell>
        <mxCell id="2ZsNSoUysK3gvo_c3f-I-4" style="rounded=0;orthogonalLoop=1;jettySize=auto;html=1;endArrow=none;startFill=0;" edge="1" parent="1" source="2ZsNSoUysK3gvo_c3f-I-1" target="My69YMBWia484eMZ25qk-176">
          <mxGeometry relative="1" as="geometry" />
        </mxCell>
        <mxCell id="2ZsNSoUysK3gvo_c3f-I-1" value="城市" style="ellipse;whiteSpace=wrap;html=1;align=center;" vertex="1" parent="1">
          <mxGeometry x="1715.21" y="455" width="100" height="40" as="geometry" />
        </mxCell>
        <mxCell id="2ZsNSoUysK3gvo_c3f-I-3" style="rounded=0;orthogonalLoop=1;jettySize=auto;html=1;endArrow=none;startFill=0;" edge="1" parent="1" source="2ZsNSoUysK3gvo_c3f-I-2" target="My69YMBWia484eMZ25qk-176">
          <mxGeometry relative="1" as="geometry" />
        </mxCell>
        <mxCell id="2ZsNSoUysK3gvo_c3f-I-2" value="国家" style="ellipse;whiteSpace=wrap;html=1;align=center;" vertex="1" parent="1">
          <mxGeometry x="1785.21" y="375" width="100" height="40" as="geometry" />
        </mxCell>
        <mxCell id="2ZsNSoUysK3gvo_c3f-I-5" style="rounded=0;orthogonalLoop=1;jettySize=auto;html=1;entryX=0.38;entryY=0.85;entryDx=0;entryDy=0;entryPerimeter=0;endArrow=none;startFill=0;" edge="1" parent="1" source="My69YMBWia484eMZ25qk-110" target="My69YMBWia484eMZ25qk-80">
          <mxGeometry relative="1" as="geometry" />
        </mxCell>
        <mxCell id="2ZsNSoUysK3gvo_c3f-I-52" style="rounded=0;orthogonalLoop=1;jettySize=auto;html=1;entryX=0.75;entryY=1;entryDx=0;entryDy=0;endArrow=none;startFill=0;" edge="1" parent="1" source="2ZsNSoUysK3gvo_c3f-I-31" target="My69YMBWia484eMZ25qk-43">
          <mxGeometry relative="1" as="geometry" />
        </mxCell>
        <mxCell id="2ZsNSoUysK3gvo_c3f-I-31" value="包含" style="shape=rhombus;double=1;perimeter=rhombusPerimeter;whiteSpace=wrap;html=1;align=center;" vertex="1" parent="1">
          <mxGeometry x="1215" y="445" width="120" height="60" as="geometry" />
        </mxCell>
        <mxCell id="2ZsNSoUysK3gvo_c3f-I-32" style="rounded=0;orthogonalLoop=1;jettySize=auto;html=1;endArrow=none;startFill=0;" edge="1" parent="1" source="2ZsNSoUysK3gvo_c3f-I-33" target="2ZsNSoUysK3gvo_c3f-I-31">
          <mxGeometry relative="1" as="geometry" />
        </mxCell>
        <mxCell id="2ZsNSoUysK3gvo_c3f-I-33" value="短链接地区监控" style="whiteSpace=wrap;html=1;align=center;" vertex="1" parent="1">
          <mxGeometry x="1430.5" y="595" width="100" height="40" as="geometry" />
        </mxCell>
        <mxCell id="2ZsNSoUysK3gvo_c3f-I-34" style="rounded=0;orthogonalLoop=1;jettySize=auto;html=1;endArrow=none;startFill=0;" edge="1" parent="1" source="2ZsNSoUysK3gvo_c3f-I-35" target="2ZsNSoUysK3gvo_c3f-I-33">
          <mxGeometry relative="1" as="geometry" />
        </mxCell>
        <mxCell id="2ZsNSoUysK3gvo_c3f-I-35" value="日期" style="ellipse;whiteSpace=wrap;html=1;align=center;" vertex="1" parent="1">
          <mxGeometry x="1430.5" y="665" width="100" height="40" as="geometry" />
        </mxCell>
        <mxCell id="2ZsNSoUysK3gvo_c3f-I-36" style="rounded=0;orthogonalLoop=1;jettySize=auto;html=1;endArrow=none;startFill=0;" edge="1" parent="1" source="2ZsNSoUysK3gvo_c3f-I-37" target="2ZsNSoUysK3gvo_c3f-I-33">
          <mxGeometry relative="1" as="geometry" />
        </mxCell>
        <mxCell id="2ZsNSoUysK3gvo_c3f-I-37" value="分组标识" style="ellipse;whiteSpace=wrap;html=1;align=center;" vertex="1" parent="1">
          <mxGeometry x="1350.5" y="635" width="100" height="40" as="geometry" />
        </mxCell>
        <mxCell id="2ZsNSoUysK3gvo_c3f-I-38" style="rounded=0;orthogonalLoop=1;jettySize=auto;html=1;endArrow=none;startFill=0;" edge="1" parent="1" source="2ZsNSoUysK3gvo_c3f-I-39" target="2ZsNSoUysK3gvo_c3f-I-33">
          <mxGeometry relative="1" as="geometry" />
        </mxCell>
        <mxCell id="2ZsNSoUysK3gvo_c3f-I-39" value="完整链接" style="ellipse;whiteSpace=wrap;html=1;align=center;" vertex="1" parent="1">
          <mxGeometry x="1520.5" y="645" width="100" height="40" as="geometry" />
        </mxCell>
        <mxCell id="2ZsNSoUysK3gvo_c3f-I-42" value="唯一id" style="ellipse;whiteSpace=wrap;html=1;align=center;" vertex="1" parent="1">
          <mxGeometry x="1412.71" y="520" width="100" height="40" as="geometry" />
        </mxCell>
        <mxCell id="2ZsNSoUysK3gvo_c3f-I-43" style="rounded=0;orthogonalLoop=1;jettySize=auto;html=1;entryX=1;entryY=0.75;entryDx=0;entryDy=0;endArrow=none;startFill=0;" edge="1" parent="1" source="2ZsNSoUysK3gvo_c3f-I-44" target="2ZsNSoUysK3gvo_c3f-I-33">
          <mxGeometry relative="1" as="geometry" />
        </mxCell>
        <mxCell id="2ZsNSoUysK3gvo_c3f-I-44" value="创建时间" style="ellipse;whiteSpace=wrap;html=1;align=center;" vertex="1" parent="1">
          <mxGeometry x="1530.5" y="585" width="100" height="40" as="geometry" />
        </mxCell>
        <mxCell id="2ZsNSoUysK3gvo_c3f-I-45" style="rounded=0;orthogonalLoop=1;jettySize=auto;html=1;endArrow=none;startFill=0;" edge="1" parent="1" source="2ZsNSoUysK3gvo_c3f-I-46" target="2ZsNSoUysK3gvo_c3f-I-33">
          <mxGeometry relative="1" as="geometry" />
        </mxCell>
        <mxCell id="2ZsNSoUysK3gvo_c3f-I-46" value="修改时间" style="ellipse;whiteSpace=wrap;html=1;align=center;" vertex="1" parent="1">
          <mxGeometry x="1530.5" y="545" width="100" height="40" as="geometry" />
        </mxCell>
        <mxCell id="2ZsNSoUysK3gvo_c3f-I-47" style="rounded=0;orthogonalLoop=1;jettySize=auto;html=1;entryX=0.78;entryY=0.2;entryDx=0;entryDy=0;entryPerimeter=0;endArrow=none;startFill=0;" edge="1" parent="1" source="2ZsNSoUysK3gvo_c3f-I-42" target="2ZsNSoUysK3gvo_c3f-I-33">
          <mxGeometry relative="1" as="geometry" />
        </mxCell>
        <mxCell id="2ZsNSoUysK3gvo_c3f-I-50" style="rounded=0;orthogonalLoop=1;jettySize=auto;html=1;endArrow=none;startFill=0;" edge="1" parent="1" source="2ZsNSoUysK3gvo_c3f-I-51" target="2ZsNSoUysK3gvo_c3f-I-33">
          <mxGeometry relative="1" as="geometry" />
        </mxCell>
        <mxCell id="2ZsNSoUysK3gvo_c3f-I-51" value="操作系统" style="ellipse;whiteSpace=wrap;html=1;align=center;" vertex="1" parent="1">
          <mxGeometry x="1600.5" y="615" width="100" height="40" as="geometry" />
        </mxCell>
      </root>
    </mxGraphModel>
  </diagram>
</mxfile>
